<svg width="64" height="64" viewBox="0 0 32 32" fill="none" xmlns="http://www.w3.org/2000/svg">
    <defs>
        <linearGradient id="circuitGrad" x1="0%" y1="0%" x2="100%" y2="100%">
            <stop offset="0%" style="stop-color:#64ffda"/>
            <stop offset="100%" style="stop-color:#88ffdb"/>
        </linearGradient>
    </defs>
    <circle cx="16" cy="16" r="15" fill="#0a192f" stroke="#64ffda" stroke-width="1.5"/>
    <g stroke="url(#circuitGrad)" stroke-width="1" fill="none" opacity="0.8">
        <path d="M6 16 L12 16 L12 12 L16 12"/>
        <path d="M16 20 L12 20 L12 24 L6 24"/>
        <path d="M20 12 L24 12 L24 16 L26 16"/>
        <path d="M26 20 L24 20 L24 24 L20 24"/>
        <path d="M16 8 L16 12"/>
        <path d="M16 20 L16 24"/>
    </g>
    <g fill="#64ffda">
        <rect x="11" y="11" width="2" height="2" rx="0.5"/>
        <rect x="11" y="19" width="2" height="2" rx="0.5"/>
        <rect x="19" y="11" width="2" height="2" rx="0.5"/>
        <rect x="19" y="19" width="2" height="2" rx="0.5"/>
        <circle cx="16" cy="16" r="2.5" fill="none" stroke="#64ffda" stroke-width="1.5"/>
        <circle cx="16" cy="16" r="1" fill="#64ffda"/>
    </g>
    <text x="16" y="18" font-family="monospace" font-size="6" font-weight="bold" text-anchor="middle" fill="#0a192f">A</text>
</svg>